<mxfile host="app.diagrams.net" modified="2023-11-29T03:11:07.129Z" agent="Mozilla/5.0 (Windows NT 10.0; Win64; x64) AppleWebKit/537.36 (KHTML, like Gecko) Chrome/119.0.0.0 Safari/537.36 Edg/119.0.0.0" etag="q9GFTE6JQa8XJxCiZJgQ" version="22.1.4" type="device">
  <diagram name="Page-1" id="f5dKQLR_bz7vE2UWDdFh">
    <mxGraphModel dx="513" dy="561" grid="1" gridSize="10" guides="1" tooltips="1" connect="1" arrows="1" fold="1" page="1" pageScale="1" pageWidth="1200" pageHeight="800" math="0" shadow="0">
      <root>
        <mxCell id="0" />
        <mxCell id="1" parent="0" />
        <mxCell id="B0YB7paEz-kD8qSPUgYX-9" value="" style="edgeStyle=orthogonalEdgeStyle;rounded=0;orthogonalLoop=1;jettySize=auto;html=1;" parent="1" source="B0YB7paEz-kD8qSPUgYX-1" target="B0YB7paEz-kD8qSPUgYX-6" edge="1">
          <mxGeometry relative="1" as="geometry" />
        </mxCell>
        <mxCell id="B0YB7paEz-kD8qSPUgYX-1" value="sINIT&lt;br&gt;CT_IN = &#39;0&#39;&lt;br&gt;CT_R = &#39;0&#39;&lt;br&gt;SEN = &#39;0&#39;&lt;br&gt;R_Sel = &#39;0&#39;&lt;br&gt;SLOAD = &#39;0&#39;&lt;br&gt;OEN = &#39;0&#39;&lt;br&gt;SubtractON = &#39;000&#39;&lt;br&gt;Status = &#39;00&#39;" style="ellipse;whiteSpace=wrap;html=1;aspect=fixed;" parent="1" vertex="1">
          <mxGeometry x="310" y="180" width="180" height="180" as="geometry" />
        </mxCell>
        <mxCell id="B0YB7paEz-kD8qSPUgYX-2" value="" style="curved=1;endArrow=classic;html=1;rounded=0;entryX=0.385;entryY=0;entryDx=0;entryDy=0;entryPerimeter=0;" parent="1" source="B0YB7paEz-kD8qSPUgYX-1" target="B0YB7paEz-kD8qSPUgYX-1" edge="1">
          <mxGeometry width="50" height="50" relative="1" as="geometry">
            <mxPoint x="500" y="340" as="sourcePoint" />
            <mxPoint x="550" y="290" as="targetPoint" />
            <Array as="points">
              <mxPoint x="310" y="170" />
              <mxPoint x="360" y="140" />
            </Array>
          </mxGeometry>
        </mxCell>
        <mxCell id="B0YB7paEz-kD8qSPUgYX-3" value="M /= &#39;100&#39;&amp;nbsp;" style="text;html=1;strokeColor=none;fillColor=none;align=center;verticalAlign=middle;whiteSpace=wrap;rounded=0;" parent="1" vertex="1">
          <mxGeometry x="320" y="120" width="60" height="40" as="geometry" />
        </mxCell>
        <mxCell id="B0YB7paEz-kD8qSPUgYX-36" value="" style="edgeStyle=orthogonalEdgeStyle;rounded=0;orthogonalLoop=1;jettySize=auto;html=1;" parent="1" source="B0YB7paEz-kD8qSPUgYX-6" target="B0YB7paEz-kD8qSPUgYX-11" edge="1">
          <mxGeometry relative="1" as="geometry" />
        </mxCell>
        <mxCell id="B0YB7paEz-kD8qSPUgYX-6" value="s2&lt;br&gt;CT_IN = &#39;1&#39;&lt;br style=&quot;border-color: var(--border-color);&quot;&gt;CT_R = &#39;0&#39;&lt;br style=&quot;border-color: var(--border-color);&quot;&gt;SEN = &#39;0&#39;&lt;br style=&quot;border-color: var(--border-color);&quot;&gt;R_Sel = &#39;0&#39;&lt;br style=&quot;border-color: var(--border-color);&quot;&gt;SLOAD = &#39;0&#39;&lt;br style=&quot;border-color: var(--border-color);&quot;&gt;OEN = &#39;0&#39;&lt;br style=&quot;border-color: var(--border-color);&quot;&gt;SubtractON = &#39;000&#39;&lt;br&gt;Status = &#39;00&#39;" style="ellipse;whiteSpace=wrap;html=1;aspect=fixed;" parent="1" vertex="1">
          <mxGeometry x="570" y="180" width="180" height="180" as="geometry" />
        </mxCell>
        <mxCell id="B0YB7paEz-kD8qSPUgYX-8" value="M = &#39;100&#39;&amp;nbsp;" style="text;html=1;strokeColor=none;fillColor=none;align=center;verticalAlign=middle;whiteSpace=wrap;rounded=0;" parent="1" vertex="1">
          <mxGeometry x="500" y="230" width="60" height="40" as="geometry" />
        </mxCell>
        <mxCell id="B0YB7paEz-kD8qSPUgYX-16" value="" style="edgeStyle=orthogonalEdgeStyle;rounded=0;orthogonalLoop=1;jettySize=auto;html=1;entryX=0;entryY=0.5;entryDx=0;entryDy=0;" parent="1" source="B0YB7paEz-kD8qSPUgYX-11" target="B0YB7paEz-kD8qSPUgYX-19" edge="1">
          <mxGeometry relative="1" as="geometry">
            <mxPoint x="1090" y="270" as="targetPoint" />
          </mxGeometry>
        </mxCell>
        <mxCell id="B0YB7paEz-kD8qSPUgYX-11" value="s3&lt;br style=&quot;border-color: var(--border-color);&quot;&gt;CT_IN = &#39;0&#39;&lt;br style=&quot;border-color: var(--border-color);&quot;&gt;CT_R = &#39;1&#39;&lt;br style=&quot;border-color: var(--border-color);&quot;&gt;SEN = &#39;1&#39;&lt;br style=&quot;border-color: var(--border-color);&quot;&gt;R_Sel = &#39;0&#39;&lt;br style=&quot;border-color: var(--border-color);&quot;&gt;SLOAD = &#39;1&#39;&lt;br style=&quot;border-color: var(--border-color);&quot;&gt;OEN = &#39;0&#39;&lt;br style=&quot;border-color: var(--border-color);&quot;&gt;SubtractON = &#39;000&#39;&lt;br&gt;Status = &#39;00&#39;" style="ellipse;whiteSpace=wrap;html=1;aspect=fixed;" parent="1" vertex="1">
          <mxGeometry x="810" y="160" width="220" height="220" as="geometry" />
        </mxCell>
        <mxCell id="LA-Jab4bbuRp95QURobG-9" value="" style="edgeStyle=orthogonalEdgeStyle;rounded=0;orthogonalLoop=1;jettySize=auto;html=1;" parent="1" source="B0YB7paEz-kD8qSPUgYX-19" target="LA-Jab4bbuRp95QURobG-8" edge="1">
          <mxGeometry relative="1" as="geometry" />
        </mxCell>
        <mxCell id="B0YB7paEz-kD8qSPUgYX-19" value="s4&lt;br style=&quot;border-color: var(--border-color);&quot;&gt;CT_IN = &#39;0&#39;&lt;br style=&quot;border-color: var(--border-color);&quot;&gt;CT_R = &#39;0&#39;&lt;br style=&quot;border-color: var(--border-color);&quot;&gt;SEN = &#39;1&#39;&lt;br style=&quot;border-color: var(--border-color);&quot;&gt;R_Sel = &#39;0&#39;&lt;br style=&quot;border-color: var(--border-color);&quot;&gt;SLOAD = &#39;0&#39;&lt;br style=&quot;border-color: var(--border-color);&quot;&gt;OEN = &#39;0&#39;&lt;br style=&quot;border-color: var(--border-color);&quot;&gt;SubtractON = &#39;000&#39;&lt;br&gt;Status = &#39;00&#39;&lt;br&gt;(add_scount = &#39;1&#39;)" style="ellipse;whiteSpace=wrap;html=1;aspect=fixed;" parent="1" vertex="1">
          <mxGeometry x="1078" y="170" width="200" height="200" as="geometry" />
        </mxCell>
        <mxCell id="B0YB7paEz-kD8qSPUgYX-32" value="" style="edgeStyle=orthogonalEdgeStyle;rounded=0;orthogonalLoop=1;jettySize=auto;html=1;" parent="1" source="B0YB7paEz-kD8qSPUgYX-21" target="B0YB7paEz-kD8qSPUgYX-31" edge="1">
          <mxGeometry relative="1" as="geometry" />
        </mxCell>
        <mxCell id="B0YB7paEz-kD8qSPUgYX-21" value="s6&lt;br style=&quot;border-color: var(--border-color);&quot;&gt;CT_IN = &#39;0&#39;&lt;br style=&quot;border-color: var(--border-color);&quot;&gt;CT_R = &#39;0&#39;&lt;br style=&quot;border-color: var(--border-color);&quot;&gt;SEN = &#39;0&#39;&lt;br style=&quot;border-color: var(--border-color);&quot;&gt;R_Sel = &#39;0&#39;&lt;br style=&quot;border-color: var(--border-color);&quot;&gt;SLOAD = &#39;0&#39;&lt;br style=&quot;border-color: var(--border-color);&quot;&gt;OEN = &#39;1&#39;&lt;br style=&quot;border-color: var(--border-color);&quot;&gt;SubtractON = &#39;000&#39;&lt;br&gt;Status = &#39;00&#39;" style="ellipse;whiteSpace=wrap;html=1;aspect=fixed;" parent="1" vertex="1">
          <mxGeometry x="1335" y="420" width="210" height="210" as="geometry" />
        </mxCell>
        <mxCell id="B0YB7paEz-kD8qSPUgYX-26" value="comp_res = &#39;1&#39;&amp;nbsp;" style="text;html=1;strokeColor=none;fillColor=none;align=center;verticalAlign=middle;whiteSpace=wrap;rounded=0;" parent="1" vertex="1">
          <mxGeometry x="2030" y="920" width="100" height="30" as="geometry" />
        </mxCell>
        <mxCell id="G8g-aIvOg6mIxiJbad2Z-1" style="edgeStyle=orthogonalEdgeStyle;rounded=0;orthogonalLoop=1;jettySize=auto;html=1;entryX=0.5;entryY=0;entryDx=0;entryDy=0;exitX=0.5;exitY=0;exitDx=0;exitDy=0;" parent="1" source="B0YB7paEz-kD8qSPUgYX-28" target="B0YB7paEz-kD8qSPUgYX-19" edge="1">
          <mxGeometry relative="1" as="geometry">
            <mxPoint x="1740" y="150" as="sourcePoint" />
            <Array as="points">
              <mxPoint x="1745" y="110" />
              <mxPoint x="1178" y="110" />
            </Array>
          </mxGeometry>
        </mxCell>
        <mxCell id="B0YB7paEz-kD8qSPUgYX-28" value="s5&lt;br style=&quot;border-color: var(--border-color);&quot;&gt;CT_IN = &#39;0&#39;&lt;br style=&quot;border-color: var(--border-color);&quot;&gt;CT_R = &#39;0&#39;&lt;br style=&quot;border-color: var(--border-color);&quot;&gt;SEN = &#39;0&#39;&lt;br style=&quot;border-color: var(--border-color);&quot;&gt;R_Sel = &#39;0&#39;&lt;br style=&quot;border-color: var(--border-color);&quot;&gt;SLOAD = &#39;0&#39;&lt;br style=&quot;border-color: var(--border-color);&quot;&gt;OEN = &#39;1&#39;&lt;br style=&quot;border-color: var(--border-color);&quot;&gt;SubtractON = &#39;000&#39;&lt;br&gt;Status = &#39;00&#39;" style="ellipse;whiteSpace=wrap;html=1;aspect=fixed;" parent="1" vertex="1">
          <mxGeometry x="1640" y="165" width="210" height="210" as="geometry" />
        </mxCell>
        <mxCell id="B0YB7paEz-kD8qSPUgYX-30" value="comp_res = &#39;1&#39;&amp;nbsp;" style="text;html=1;strokeColor=none;fillColor=none;align=center;verticalAlign=middle;whiteSpace=wrap;rounded=0;" parent="1" vertex="1">
          <mxGeometry x="1445" y="380" width="100" height="30" as="geometry" />
        </mxCell>
        <mxCell id="LA-Jab4bbuRp95QURobG-3" value="" style="edgeStyle=orthogonalEdgeStyle;rounded=0;orthogonalLoop=1;jettySize=auto;html=1;" parent="1" source="B0YB7paEz-kD8qSPUgYX-31" target="LA-Jab4bbuRp95QURobG-2" edge="1">
          <mxGeometry relative="1" as="geometry" />
        </mxCell>
        <mxCell id="B0YB7paEz-kD8qSPUgYX-31" value="s7&lt;br style=&quot;border-color: var(--border-color);&quot;&gt;CT_IN = &#39;0&#39;&lt;br style=&quot;border-color: var(--border-color);&quot;&gt;CT_R = &#39;0&#39;&lt;br style=&quot;border-color: var(--border-color);&quot;&gt;SEN = &#39;0&#39;&lt;br style=&quot;border-color: var(--border-color);&quot;&gt;R_Sel = &#39;0&#39;&lt;br style=&quot;border-color: var(--border-color);&quot;&gt;SLOAD = &#39;0&#39;&lt;br style=&quot;border-color: var(--border-color);&quot;&gt;OEN = &#39;0&#39;&lt;br style=&quot;border-color: var(--border-color);&quot;&gt;SubtractON = &#39;010&#39;&lt;br&gt;Status = &#39;00&#39;" style="ellipse;whiteSpace=wrap;html=1;aspect=fixed;" parent="1" vertex="1">
          <mxGeometry x="1335" y="690" width="210" height="210" as="geometry" />
        </mxCell>
        <mxCell id="B0YB7paEz-kD8qSPUgYX-33" value="SubtractorStatus = &#39;10&#39;" style="text;html=1;strokeColor=none;fillColor=none;align=center;verticalAlign=middle;whiteSpace=wrap;rounded=0;" parent="1" vertex="1">
          <mxGeometry x="1441" y="920" width="150" height="30" as="geometry" />
        </mxCell>
        <mxCell id="G8g-aIvOg6mIxiJbad2Z-2" value="scount &amp;lt; 40" style="text;html=1;strokeColor=none;fillColor=none;align=center;verticalAlign=middle;whiteSpace=wrap;rounded=0;" parent="1" vertex="1">
          <mxGeometry x="1530" y="80" width="80" height="30" as="geometry" />
        </mxCell>
        <mxCell id="G8g-aIvOg6mIxiJbad2Z-5" value="sEND&lt;br style=&quot;border-color: var(--border-color);&quot;&gt;CT_IN = &#39;0&#39;&lt;br style=&quot;border-color: var(--border-color);&quot;&gt;CT_R = &#39;0&#39;&lt;br style=&quot;border-color: var(--border-color);&quot;&gt;SEN = &#39;0&#39;&lt;br style=&quot;border-color: var(--border-color);&quot;&gt;R_Sel = &#39;0&#39;&lt;br style=&quot;border-color: var(--border-color);&quot;&gt;SLOAD = &#39;0&#39;&lt;br style=&quot;border-color: var(--border-color);&quot;&gt;OEN = &#39;0&#39;&lt;br style=&quot;border-color: var(--border-color);&quot;&gt;SubtractON = &#39;000&#39;&lt;br&gt;Status = &#39;11&#39;" style="ellipse;whiteSpace=wrap;html=1;aspect=fixed;" parent="1" vertex="1">
          <mxGeometry x="1334" y="1430" width="210" height="210" as="geometry" />
        </mxCell>
        <mxCell id="G8g-aIvOg6mIxiJbad2Z-7" style="edgeStyle=orthogonalEdgeStyle;rounded=0;orthogonalLoop=1;jettySize=auto;html=1;entryX=1.001;entryY=0.553;entryDx=0;entryDy=0;entryPerimeter=0;exitX=0.5;exitY=1;exitDx=0;exitDy=0;" parent="1" source="B0YB7paEz-kD8qSPUgYX-28" target="G8g-aIvOg6mIxiJbad2Z-5" edge="1">
          <mxGeometry relative="1" as="geometry" />
        </mxCell>
        <mxCell id="G8g-aIvOg6mIxiJbad2Z-8" value="scount = 40" style="text;html=1;strokeColor=none;fillColor=none;align=center;verticalAlign=middle;whiteSpace=wrap;rounded=0;" parent="1" vertex="1">
          <mxGeometry x="1750" y="580" width="80" height="30" as="geometry" />
        </mxCell>
        <mxCell id="LA-Jab4bbuRp95QURobG-4" style="edgeStyle=orthogonalEdgeStyle;rounded=0;orthogonalLoop=1;jettySize=auto;html=1;entryX=0.5;entryY=0;entryDx=0;entryDy=0;" parent="1" source="LA-Jab4bbuRp95QURobG-2" target="G8g-aIvOg6mIxiJbad2Z-5" edge="1">
          <mxGeometry relative="1" as="geometry" />
        </mxCell>
        <mxCell id="LA-Jab4bbuRp95QURobG-6" style="edgeStyle=orthogonalEdgeStyle;rounded=0;orthogonalLoop=1;jettySize=auto;html=1;" parent="1" source="LA-Jab4bbuRp95QURobG-2" edge="1">
          <mxGeometry relative="1" as="geometry">
            <mxPoint x="1170" y="370" as="targetPoint" />
            <Array as="points">
              <mxPoint x="1170" y="1085" />
            </Array>
          </mxGeometry>
        </mxCell>
        <mxCell id="LA-Jab4bbuRp95QURobG-2" value="s8&lt;br style=&quot;border-color: var(--border-color);&quot;&gt;CT_IN = &#39;0&#39;&lt;br style=&quot;border-color: var(--border-color);&quot;&gt;CT_R = &#39;1&#39;&lt;br style=&quot;border-color: var(--border-color);&quot;&gt;SEN = &#39;0&#39;&lt;br style=&quot;border-color: var(--border-color);&quot;&gt;R_Sel = &#39;1&#39;&lt;br style=&quot;border-color: var(--border-color);&quot;&gt;SLOAD = &#39;0&#39;&lt;br style=&quot;border-color: var(--border-color);&quot;&gt;OEN = &#39;0&#39;&lt;br style=&quot;border-color: var(--border-color);&quot;&gt;SubtractON = &#39;000&#39;&lt;br&gt;Status = &#39;00&#39;" style="ellipse;whiteSpace=wrap;html=1;aspect=fixed;" parent="1" vertex="1">
          <mxGeometry x="1335" y="980" width="210" height="210" as="geometry" />
        </mxCell>
        <mxCell id="LA-Jab4bbuRp95QURobG-5" value="scount = 40" style="text;html=1;strokeColor=none;fillColor=none;align=center;verticalAlign=middle;whiteSpace=wrap;rounded=0;" parent="1" vertex="1">
          <mxGeometry x="1450" y="1310" width="70" height="30" as="geometry" />
        </mxCell>
        <mxCell id="LA-Jab4bbuRp95QURobG-7" value="scount &amp;lt; 40" style="text;html=1;strokeColor=none;fillColor=none;align=center;verticalAlign=middle;whiteSpace=wrap;rounded=0;" parent="1" vertex="1">
          <mxGeometry x="1170" y="610" width="80" height="30" as="geometry" />
        </mxCell>
        <mxCell id="LA-Jab4bbuRp95QURobG-10" value="" style="edgeStyle=orthogonalEdgeStyle;rounded=0;orthogonalLoop=1;jettySize=auto;html=1;" parent="1" source="LA-Jab4bbuRp95QURobG-8" target="B0YB7paEz-kD8qSPUgYX-21" edge="1">
          <mxGeometry relative="1" as="geometry" />
        </mxCell>
        <mxCell id="LA-Jab4bbuRp95QURobG-11" value="" style="edgeStyle=orthogonalEdgeStyle;rounded=0;orthogonalLoop=1;jettySize=auto;html=1;" parent="1" source="LA-Jab4bbuRp95QURobG-8" target="B0YB7paEz-kD8qSPUgYX-28" edge="1">
          <mxGeometry relative="1" as="geometry" />
        </mxCell>
        <mxCell id="LA-Jab4bbuRp95QURobG-8" value="scompare&lt;br style=&quot;border-color: var(--border-color);&quot;&gt;CT_IN = &#39;0&#39;&lt;br style=&quot;border-color: var(--border-color);&quot;&gt;CT_R = &#39;0&#39;&lt;br style=&quot;border-color: var(--border-color);&quot;&gt;SEN = &#39;0&#39;&lt;br style=&quot;border-color: var(--border-color);&quot;&gt;R_Sel = &#39;0&#39;&lt;br style=&quot;border-color: var(--border-color);&quot;&gt;SLOAD = &#39;0&#39;&lt;br style=&quot;border-color: var(--border-color);&quot;&gt;OEN = &#39;0&#39;&lt;br style=&quot;border-color: var(--border-color);&quot;&gt;SubtractON = &#39;000&#39;&lt;br&gt;Status = &#39;00&#39;" style="ellipse;whiteSpace=wrap;html=1;aspect=fixed;" parent="1" vertex="1">
          <mxGeometry x="1341" y="170" width="200" height="200" as="geometry" />
        </mxCell>
        <mxCell id="LA-Jab4bbuRp95QURobG-12" value="comp_res = &#39;0&#39;&amp;nbsp;" style="text;html=1;strokeColor=none;fillColor=none;align=center;verticalAlign=middle;whiteSpace=wrap;rounded=0;" parent="1" vertex="1">
          <mxGeometry x="1540" y="235" width="100" height="30" as="geometry" />
        </mxCell>
      </root>
    </mxGraphModel>
  </diagram>
</mxfile>
